<?xml version="1.0" ?><!DOCTYPE svg  PUBLIC '-//W3C//DTD SVG 1.1//EN'  'http://www.w3.org/Graphics/SVG/1.1/DTD/svg11.dtd'><svg enable-background="new 0 0 128 128" height="128px" id="Layer_1" version="1.1" viewBox="0 0 128 128" width="128px" xml:space="preserve" xmlns="http://www.w3.org/2000/svg" xmlns:xlink="http://www.w3.org/1999/xlink"><path fill="#4d4d4d" d="M 91 111.8 c -1.2 0 -2.3 -0.4 -3.3 -1 C 87.2 110.4 68.9 97.1 64 93.5 L 40.3 110.7 c -1 0.7 -2.2 1.1 -3.4 1.1 c -3.2 0 -5.9 -2.6 -5.9 -5.9 c 0 -0.6 0.1 -1.3 0.3 -2 l 0 -0.1 c 0.3 -0.7 6.2 -19 9 -27.6 c -7.3 -5.4 -23 -16.8 -23.7 -17.3 c -1.6 -1.1 -2.5 -2.9 -2.5 -4.8 c 0 -3.3 2.6 -6 5.8 -6 h 29.3 l 8.9 -27.6 c 0.7 -2.4 3 -4.2 5.6 -4.2 c 2.6 0 4.9 1.8 5.6 4.3 l 8.9 27.5 h 29.4 c 3.2 0 5.8 2.7 5.8 6 c 0 1.9 -0.9 3.7 -2.5 4.8 c -0.7 0.5 -16.3 11.9 -23.7 17.3 c 2.8 8.6 8.8 26.9 9 27.6 c 0.2 0.7 0.4 1.4 0.4 2 C 96.9 109.2 94.3 111.8 91 111.8 z M 64 88.6 l 1.2 0.9 c 8.4 6.1 24.4 17.8 24.8 18.1 c 0.3 0.2 0.7 0.3 1 0.3 c 1 0 1.9 -0.8 1.9 -1.9 c 0 -0.2 0 -0.4 -0.1 -0.7 c -0.1 -0.4 -6.7 -20.5 -9.5 -29.1 l -0.4 -1.4 l 1.2 -0.9 c 2.5 -1.8 24.3 -17.8 24.9 -18.2 c 0.5 -0.3 0.8 -0.9 0.8 -1.5 c 0 -1.1 -0.8 -2 -1.8 -2 H 75.7 l -9.9 -30.4 c -0.3 -0.9 -1 -1.4 -1.8 -1.4 c -0.8 0 -1.5 0.5 -1.8 1.4 l -9.8 30.4 H 20.1 c -1 0 -1.8 0.9 -1.8 2 c 0 0.6 0.3 1.2 0.8 1.5 c 0.6 0.4 22.4 16.3 24.9 18.2 l 1.2 0.9 l -0.4 1.4 c -2.7 8.3 -8.9 27.4 -9.5 29.1 h 0 c -0.1 0.3 -0.1 0.5 -0.1 0.7 c 0 1 0.8 1.9 1.9 1.9 c 0.4 0 0.7 -0.1 1.1 -0.3 L 64 88.6 z"/></svg>