<?xml version="1.0" ?><!DOCTYPE svg  PUBLIC '-//W3C//DTD SVG 1.1//EN'  'http://www.w3.org/Graphics/SVG/1.1/DTD/svg11.dtd'><svg height="100%" style="fill-rule: evenodd; stroke-linejoin: round; clip-rule: evenodd; stroke-miterlimit: 1.41421" version="1.1" viewBox="0 0 128 128" width="100%" xml:space="preserve" xmlns="http://www.w3.org/2000/svg" xmlns:serif="http://www.serif.com/" xmlns:xlink="http://www.w3.org/1999/xlink"><rect height="128" id="Trash" style="fill: none" width="128" x="0.4" y="0.2"/><path fill="#4d4d4d" d="M 96.7 30.3 c 1.2 0.5 1.3 0.7 1.4 1.9 c 0 22.1 0.1 44.3 0 66.4 c -0.1 8.1 -7 15.5 -15.6 15.6 c -12.3 0 -24.5 0 -36.8 0 c -8.1 -0.1 -15.5 -7.1 -15.6 -15.6 l 0 -66.4 c 0 0 0.9 -3 3.1 -1.7 c 0.6 0.4 0.9 1 0.9 1.7 c 0 22.1 -0.2 44.3 0 66.4 c 0.1 6 5.2 11.5 11.6 11.6 c 12.3 0.1 24.6 0.1 36.9 0 c 6.1 -0.1 11.5 -5.4 11.6 -11.7 l 0 -66.3 c 0.1 -1.3 1.2 -2.3 2.6 -1.9 Z m -32.4 4.4 c 1 0.2 1.7 1 1.8 2 l 0 64 c -0.1 1.9 -0.9 1.9 -1.8 2 c -1.1 0.1 -2.2 -0.8 -2.2 -2 l 0 -64 c 0.1 -1.1 1 -2.1 2.2 -2 Z m 16 0 c 1 0.2 1.7 1 1.8 2 l 0 64 c -0.1 1.6 -2.2 2.6 -3.4 1.4 c -0.3 -0.3 -0.5 -0.6 -0.6 -1.4 l 0 -64 c 0.1 -1.1 1 -2.1 2.2 -2 Z m -32 0 c 1 0.2 1.7 1 1.8 2 l 0 64 c -0.1 1.6 -2.3 2.6 -3.4 1.4 c -0.3 -0.3 -0.5 -0.6 -0.6 -1.4 l 0 -64 c 0.1 -1.1 1 -2.1 2.2 -2 Z m 57.3 -7.5 l -82.5 0 c -0.1 0 -0.2 0 -0.3 0 c -1.7 -0.3 -1.7 -1 -1.7 -1.9 c -0.1 -1.1 0.9 -2.1 2 -2.1 l 23 0 l 0 -5.6 c 0.1 -1.8 1.6 -3.3 3.4 -3.4 c 9.7 -0.1 19.4 0 29.1 0 c 1.8 0 3.5 1.6 3.5 3.5 l 0 5.5 l 23.5 0 c 0 0 3.2 1.2 1.5 3.3 c -0.4 0.5 -0.9 0.7 -1.5 0.7 Z m -55.5 -4 l 28 0 l 0 -5 l -28 0 l 0 5 Z"/>
    <linearGradient id="ct2de8q5"/></svg>