<?xml version="1.0" ?><svg id="Layer_1" style="enable-background: new 0 0 24 24" version="1.1" viewBox="0 0 24 24" xml:space="preserve" xmlns="http://www.w3.org/2000/svg" xmlns:xlink="http://www.w3.org/1999/xlink"><style type="text/css">
	.st0{fill:none;stroke:#a6a6a6;stroke-width:1.6724;stroke-linecap:round;stroke-linejoin:round;stroke-miterlimit:10;}
	.st1{fill:none;stroke:#a6a6a6;stroke-width:1.5;stroke-linecap:round;stroke-linejoin:round;stroke-miterlimit:10;}
	.st2{fill:none;stroke:#a6a6a6;stroke-width:1.5;stroke-linejoin:round;stroke-miterlimit:10;}
</style><g fill="rgb(131, 131, 131)"><g><g><path d="M 22.2 1.5 l -8.5 11.2 c -0.2 0.3 -0.3 0.6 -0.3 0.9 v 7.8 l -2.7 0.8 v -8.6 c 0 -0.3 -0.1 -0.6 -0.3 -0.9 L 1.8 1.5 H 22.2 M 22.8 0 H 1.2 c -1 0 -1.5 1.1 -0.9 1.9 l 8.9 11.8 v 9.6 c 0 0.4 0.3 0.7 0.7 0.7 c 0.1 0 0.1 0 0.2 0 l 4.3 -1.3 c 0.3 -0.1 0.5 -0.4 0.5 -0.7 v -8.3 l 8.9 -11.8 C 24.3 1.1 23.8 0 22.8 0 L 22.8 0 z">
                </path></g></g></g></svg>