<?xml version="1.0" encoding="UTF-8" standalone="no" ?>
<!DOCTYPE svg PUBLIC "-//W3C//DTD SVG 1.1//EN" "http://www.w3.org/Graphics/SVG/1.1/DTD/svg11.dtd">
<svg xmlns="http://www.w3.org/2000/svg" xmlns:xlink="http://www.w3.org/1999/xlink" version="1.1" width="1000" height="600" viewBox="0 0 1000 600" xml:space="preserve">
<desc>Created with Fabric.js 4.2.0</desc>
<defs>
</defs>
<g transform="matrix(1,0,0,1,500,300)" id="79ccf132-f01e-4614-933e-117027a3ad86"  >
<rect style="fill: #4d4d4d; fill-rule: nonzero; stroke: none; stroke-width: 1; stroke-linecap: butt; stroke-linejoin: miter; stroke-dasharray: none; stroke-dashoffset: 0; stroke-miterlimit: 4; fill-opacity: 0; opacity: 1" vector-effect="non-scaling-stroke"  x="-500" y="-300" rx="0" ry="0" width="1000" height="600" />
</g>
<g transform="matrix(Infinity NaN NaN Infinity 0 0)" id="3e82ab1d-21b6-4bfc-95b2-7d1dc61e2059"  >
</g>
<g transform="matrix(20,0,0,20,500,300)"  >
<g style="" vector-effect="non-scaling-stroke"   >
		<g transform="matrix(1,0,0,1,0,0)"  >
<path style="fill: #4d4d4d; fill-rule: nonzero; stroke: none; stroke-width: 1; stroke-linecap: butt; stroke-linejoin: miter; stroke-dasharray: none; stroke-dashoffset: 0; stroke-miterlimit: 4; opacity: 1" vector-effect="non-scaling-stroke"  transform="translate(-25,-25)" d="M 25 39 C 38 39 48.4 26.2 48.8 25.6 L 49.3 25 L 48.8 24.4 C 48.4 23.8 38 11 25 11 C 12 11 1.6 23.8 1.2 24.4 L 0.7 25 L 1.2 25.6 C 1.6 26.2 12 39 25 39 z M 25 13 C 35.5 13 44.5 22.5 46.7 25 C 44.5 27.5 35.5 37 25 37 C 14.5 37 5.5 27.5 3.3 25 C 5.5 22.5 14.5 13 25 13 z" stroke-linecap="round" />
</g>
		<g transform="matrix(1,0,0,1,0,0)"  >
<path style="fill: #4d4d4d; fill-rule: nonzero; stroke: none; stroke-width: 1; stroke-linecap: butt; stroke-linejoin: miter; stroke-dasharray: none; stroke-dashoffset: 0; stroke-miterlimit: 4; opacity: 1" vector-effect="non-scaling-stroke"  transform="translate(-25,-25)" d="M 25 34 C 30 34 34 30 34 25 C 34 20 30 16 25 16 C 20 16 16 20 16 25 C 16 30 20 34 25 34 z M 25 18 C 28.9 18 32 21.1 32 25 C 32 28.9 28.9 32 25 32 C 21.1 32 18 28.9 18 25 C 18 21.1 21.1 18 25 18 z" stroke-linecap="round" />
</g>
</g>
</g>
</svg>